<svg width="20" height="20" viewBox="0 0 20 20" fill="none" xmlns="http://www.w3.org/2000/svg">
<g id="shield-check 1" clip-path="url(#clip0_20_97)">
<path id="Vector" d="M15.4842 1.78329L10.2633 0.0424565C10.0924 -0.0144777 9.9076 -0.0144777 9.73666 0.0424565L4.51583 1.78329C3.68575 2.05902 2.96367 2.58934 2.45219 3.29888C1.94072 4.00843 1.66586 4.86111 1.66666 5.73579V9.99996C1.66666 16.3025 9.33332 19.7833 9.66166 19.9283C9.76818 19.9756 9.88344 20.0001 9.99999 20.0001C10.1165 20.0001 10.2318 19.9756 10.3383 19.9283C10.6667 19.7833 18.3333 16.3025 18.3333 9.99996V5.73579C18.3341 4.86111 18.0593 4.00843 17.5478 3.29888C17.0363 2.58934 16.3142 2.05902 15.4842 1.78329ZM16.6667 9.99996C16.6667 14.5458 11.4008 17.5275 9.99999 18.2408C8.59749 17.53 3.33332 14.5575 3.33332 9.99996V5.73579C3.33337 5.21102 3.49855 4.69957 3.80546 4.27391C4.11237 3.84824 4.54545 3.52995 5.04332 3.36412L9.99999 1.71162L14.9567 3.36412C15.4545 3.52995 15.8876 3.84824 16.1945 4.27391C16.5014 4.69957 16.6666 5.21102 16.6667 5.73579V9.99996Z" fill="white"/>
<path id="Vector_2" d="M12.75 6.91661L9.26 10.4166L7.39 8.46661C7.31495 8.38455 7.22424 8.31835 7.12322 8.2719C7.02219 8.22544 6.91289 8.19968 6.80175 8.19612C6.69061 8.19256 6.57988 8.21128 6.47609 8.25117C6.37229 8.29107 6.27754 8.35133 6.19739 8.42842C6.11725 8.5055 6.05335 8.59784 6.00944 8.70001C5.96554 8.80217 5.94253 8.91208 5.94176 9.02328C5.941 9.13447 5.96249 9.24469 6.00498 9.34745C6.04747 9.45021 6.1101 9.54343 6.18917 9.62161L8.11083 11.6216C8.25415 11.7764 8.42737 11.9005 8.62001 11.9865C8.81266 12.0724 9.02074 12.1184 9.23167 12.1216H9.25917C9.46588 12.1223 9.67067 12.0819 9.86165 12.0028C10.0526 11.9237 10.226 11.8074 10.3717 11.6608L13.9317 8.10077C14.0094 8.02318 14.0711 7.93104 14.1133 7.8296C14.1554 7.72816 14.1772 7.61942 14.1773 7.50957C14.1774 7.39973 14.1559 7.29094 14.1139 7.18941C14.072 7.08789 14.0105 6.99561 13.9329 6.91786C13.8553 6.8401 13.7632 6.77839 13.6617 6.73625C13.5603 6.69411 13.4516 6.67236 13.3417 6.67224C13.2319 6.67213 13.1231 6.69365 13.0216 6.73557C12.92 6.7775 12.8278 6.83902 12.75 6.91661Z" fill="white"/>
</g>
<defs>
<clipPath id="clip0_20_97">
<rect width="20" height="20" fill="white"/>
</clipPath>
</defs>
</svg>
